<?xml version="1.0" encoding="utf-8"?>
<!-- Generator: Adobe Illustrator 24.1.1, SVG Export Plug-In . SVG Version: 6.00 Build 0)  -->
<svg version="1.1" id="Layer_1" xmlns="http://www.w3.org/2000/svg" xmlns:xlink="http://www.w3.org/1999/xlink" x="0px" y="0px"
	 viewBox="0 0 512 512" style="enable-background:new 0 0 512 512;" xml:space="preserve">
<g>
	<path d="M366.2,203.2C339.3,84.5,275.7,45.5,268.8,30.6C261.3,20,253.2,0,253.2,0l-0.2,1.1v0.3L253,2.2v0.3h-0.1V3v0.6h-0.1
		l-0.1,0.5v0.5L252.7,5v0.4l-0.1,0.7v0.1l-0.2,1.1v0.2l-0.1,0.3V8h-0.1v0.5h-0.1v0.3H252v0.5h-0.1v0.4h-0.1v0.3h-0.1v0.3h-0.1v0.3
		h-0.1v0.3h-0.1v0.3h-0.1v0.3h-0.1v0.1V12h-0.1l-0.1,0.1v0.2l-0.1,0.2l-0.2,0.5l-0.1,0.2v0.2h-0.1v0.2h-0.2v0.4h-0.2v0.3h-0.1v0.1
		h-0.1v0.2h-0.1v0.3h-0.1v0.2H250V15h-0.1v0.2h-0.1v0.2h-0.1v0.3h-0.1v0.2h-0.1v0.1h-0.1V16h-0.2v0.3h-0.1v0.1h-0.1v0.2h-0.1v0.3
		h-0.1v0.1H249V17h-0.1V17h-0.1v0.3h-0.2v0.1h-0.1v0.2h-0.1v0.1h-0.1v0.2h-0.1v0.1v0.1l-0.1,0.1v0.1h-0.1l-0.3,0.4l-0.2,0.3
		l-0.1,0.1v0.1h-0.1V19h-0.1v0.1v0.1h-0.2v0.1h-0.1v0.1h-0.1v0.1v0.2h-0.1v0.1H247v0.1H247v0.2h-0.1v-0.2h-0.2v0.1h-0.1V20h-0.1v0.2
		h-0.1v0.1h-0.1v0.1h-0.1v0.1h-0.1v0.2h-0.2v0.1H246v0.2h-0.1v0.1h-0.1v0.1h-0.1v0.3h-0.1v0.1h-0.1v0.1h-0.1v0.1h-0.1v0.1h-0.2v0.2
		h-0.1v0.1h-0.1v0.1H245V22H245v0.1h-0.2v0.1h-0.1v0.1h-0.1v0.2h-0.1v0.2h-0.1v0.1h-0.1v0.1h-0.2v0.1h-0.1v0.1h-0.1V23H244v0.1h-0.1
		v0.2h-0.1v0.1h-0.1v0.1h-0.1v0.1h-0.1v0.1h-0.2v0.1l-0.1,0.1l-0.1,0.1l-0.1,0.1v0.2h-0.1v0.1H243v0.1H243v0.1h-0.1l-0.2,0.2v0.1
		l-0.3,0.3l-0.3,0.2l-0.8,0.8l-0.5,0.3l-1,0.8l-1.6,1.3h-0.1l-3.9,3.4h-0.1c-3.6,3.2-7.8,7.2-12.7,12.1l-0.4,0.4
		c-29,30-74.8,92.6-79.6,193.8c-0.5,8.3-0.4,16.5,0.1,24.4v0.2c2.3,39.9,14.8,73.9,30.5,101.6c6.2,11,12.9,21,19.8,30
		c23.5,31,47.5,49.5,53.6,54c9.4,21.8,8.6,59.3,8.6,59.3l13.8,4.6c0,0-2.8-36.3,1.1-53.9c1.3-5.4,4.1-10.1,7.4-14.1
		c2.3-1.6,9-6.4,17-13.8l1-1.2c32.4-30.3,93.1-104.8,72.3-226.2L366.2,203.2z"/>
</g>
</svg>
